{"title":"Space Dandy","uid":10001747,"size":1605073828,"categoryP":"video","categoryS":"tv_shows","magnet":"?xt=urn:btih:5dd2d8a862190e09bcd14829ff4a3f4a13541e48&amp;dn=Space+Dandy&amp;tr=udp%3A%2F%2Ftracker.openbittorrent.com%3A80&amp;tr=udp%3A%2F%2Fopen.demonii.com%3A1337&amp;tr=udp%3A%2F%2Ftracker.coppersurfer.tk%3A6969&amp;tr=udp%3A%2F%2Fexodus.desync.com%3A6969","seeders":2,"leechers":0,"uploader":"p7trick","files":-1,"time":1397989887,"description":"watchcartoononline\n\nSpace Dandy ep 1-13 ENGLISH DUBBED\n_________________________________________________________\n\nFormat                                   : Flash Video\nFile size                                : 134 MiB\nDuration                                 : 22mn 34s\nOverall bit rate                         : 832 Kbps\nTagging application                      : Yet Another Metadata Injector for FLV - Version 1.8\n\nVideo\nFormat                                   : AVC\nFormat/Info                              : Advanced Video Codec\nFormat profile                           : &lt;a class=&quot;__cf_email__&quot; href=&quot;/cdn-cgi/l/email-protection&quot; data-cfemail=&quot;a7efcec0cfe7eb948996&quot;&gt;[email&amp;#160;protected]&lt;/a&gt;&lt;script cf-hash='f9e31' type=&quot;text/javascript&quot;&gt;\n/* &lt;![CDATA[ */!function(){try{var t=&quot;currentScript&quot;in document?document.currentScript:function(){for(var t=document.getElementsByTagName(&quot;script&quot;),e=t.length;e--;)if(t[e].getAttribute(&quot;cf-hash&quot;))return t[e]}();if(t&amp;&amp;t.previousSibling){var e,r,n,i,c=t.previousSibling,a=c.getAttribute(&quot;data-cfemail&quot;);if(a){for(e=&quot;&quot;,r=parseInt(a.substr(0,2),16),n=2;a.length-n;n+=2)i=parseInt(a.substr(n,2),16)^r,e+=String.fromCharCode(i);e=document.createTextNode(e),c.parentNode.replaceChild(e,c)}}}catch(u){}}();/* ]]&gt; */&lt;/script&gt;\nFormat settings, CABAC                   : Yes\nFormat settings, ReFrames                : 5 frames\nCodec ID                                 : 7\nDuration                                 : 22mn 34s\nBit rate                                 : 678 Kbps\nWidth                                    : 852 pixels\nHeight                                   : 480 pixels\nDisplay aspect ratio                     : 16:9\nFrame rate mode                          : Constant\nFrame rate                               : 29.970 fps\nColor space                              : YUV\nChroma subsampling                       : 4:2:0\nBit depth                                : 8 bits\nScan type                                : Progressive\nBits/(Pixel*Frame)                       : 0.055\nStream size                              : 113 MiB (84%)\n\nAudio\nFormat                                   : AAC\nFormat/Info                              : Advanced Audio Codec\nFormat profile                           : LC\nCodec ID                                 : 10\nDuration                                 : 22mn 34s\nBit rate                                 : 126 Kbps\nChannel(s)                               : 2 channels\nChannel positions                        : Front: L R\nSampling rate                            : 44.1 KHz\nCompression mode                         : Lossy\nStream size                              : 21.4 MiB (16%)\nLanguage                                 : English\n_________________________________________________________\n\nSummary:\nThe lead character Dandy is an alien hunter and the dandiest man in space. The anime is set far in the future where people have gone to the far reaches of the universe. Dandy is searching for aliens that no one has found before with his robot partner QT.\n\nFor updates/requests:\nTwitter - @p7tricktorrent\nFacebook - /p7tricktorrent\nTPB - /user/p7trick/\nKAT - /user/iPirate7\n_________________________________________________________\n\nSEED!\n\nshare ratio:\n&quot;Scumbag = 0.1:1\nLeecher = 0.999:1\nMinimum = 1:1\nGood = 3:1\nGreat = 5:1\nAwesome = 10:1\n1337 = 100:1&quot;\t\t\t","torrent":{"xt":"urn:btih:5dd2d8a862190e09bcd14829ff4a3f4a13541e48","amp;dn":"Space+Dandy","amp;tr":["udp%3A%2F%2Ftracker.openbittorrent.com%3A80","udp%3A%2F%2Fopen.demonii.com%3A1337","udp%3A%2F%2Ftracker.coppersurfer.tk%3A6969","udp%3A%2F%2Fexodus.desync.com%3A6969"],"infoHash":"5dd2d8a862190e09bcd14829ff4a3f4a13541e48","infoHashBuffer":{"type":"Buffer","data":[93,210,216,168,98,25,14,9,188,209,72,41,255,74,63,74,19,84,30,72]},"announce":[],"urlList":[]}}